HIERARCHY
ROOT Hips
{
	OFFSET -0.001795 -0.223333 0.028219
	CHANNELS 6 Xposition Yposition Zposition Zrotation Yrotation Xrotation 
	JOINT LeftUpLeg
	{
		OFFSET 0.069520 -0.091406 -0.006815
		CHANNELS 3 Zrotation Yrotation Xrotation
		JOINT LeftLeg
		{
			OFFSET 0.034277 -0.375199 -0.004496
			CHANNELS 3 Zrotation Yrotation Xrotation
			JOINT LeftFoot
			{
				OFFSET -0.013596 -0.397961 -0.043693
				CHANNELS 3 Zrotation Yrotation Xrotation
				JOINT LeftToe
				{
					OFFSET 0.026358 -0.055791 0.119288
					CHANNELS 3 Zrotation Yrotation Xrotation
					End Site
					{
						OFFSET 0.000000 0.000000 0.000000
					}
				}
			}
		}
	}
	JOINT RightUpLeg
	{
		OFFSET -0.067670 -0.090522 -0.004320
		CHANNELS 3 Zrotation Yrotation Xrotation
		JOINT RightLeg
		{
			OFFSET -0.038290 -0.382569 -0.008850
			CHANNELS 3 Zrotation Yrotation Xrotation
			JOINT RightFoot
			{
				OFFSET 0.015774 -0.398415 -0.042312
				CHANNELS 3 Zrotation Yrotation Xrotation
				JOINT RightToe
				{
					OFFSET -0.025372 -0.048144 0.123348
					CHANNELS 3 Zrotation Yrotation Xrotation
					End Site
					{
						OFFSET 0.000000 0.000000 0.000000
					}
				}
			}
		}
	}
	JOINT Spine
	{
		OFFSET -0.002533 0.108963 -0.026696
		CHANNELS 3 Zrotation Yrotation Xrotation
		JOINT Spine1
		{
			OFFSET 0.005487 0.135180 0.001092
			CHANNELS 3 Zrotation Yrotation Xrotation
			JOINT Spine2
			{
				OFFSET 0.001457 0.052922 0.025425
				CHANNELS 3 Zrotation Yrotation Xrotation
				JOINT Neck
				{
					OFFSET -0.002778 0.213870 -0.042857
					CHANNELS 3 Zrotation Yrotation Xrotation
					JOINT Head
					{
						OFFSET 0.005152 0.064970 0.051349
						CHANNELS 3 Zrotation Yrotation Xrotation
						End Site
						{
							OFFSET 0.000000 0.000000 0.000000
						}
					}
				}
				JOINT LeftShoulder
				{
					OFFSET 0.078845 0.121749 -0.034090
					CHANNELS 3 Zrotation Yrotation Xrotation
					JOINT LeftArm
					{
						OFFSET 0.090977 0.030469 -0.008868
						CHANNELS 3 Zrotation Yrotation Xrotation
						JOINT LeftForeArm
						{
							OFFSET 0.259612 -0.012772 -0.027456
							CHANNELS 3 Zrotation Yrotation Xrotation
							JOINT LeftHand
							{
								OFFSET 0.249234 0.008986 -0.001171
								CHANNELS 3 Zrotation Yrotation Xrotation
								End Site
								{
									OFFSET 0.000000 0.000000 0.000000
								}
							}
						}
					}
				}
				JOINT RightShoulder
				{
					OFFSET -0.081759 0.118833 -0.038615
					CHANNELS 3 Zrotation Yrotation Xrotation
					JOINT RightArm
					{
						OFFSET -0.096012 0.032551 -0.009143
						CHANNELS 3 Zrotation Yrotation Xrotation
						JOINT RightForeArm
						{
							OFFSET -0.253742 -0.013329 -0.021401
							CHANNELS 3 Zrotation Yrotation Xrotation
							JOINT RightHand
							{
								OFFSET -0.255298 0.007772 -0.005559
								CHANNELS 3 Zrotation Yrotation Xrotation
								End Site
								{
									OFFSET 0.000000 0.000000 0.000000
								}
							}
						}
					}
				}
			}
		}
	}
}
MOTION
Frames: 13
Frame Time: 0.050000
-0.145107 0.928747 -0.041013 -0.522601 -36.961546 10.440717 2.494873 -0.193066 -4.490583 3.013712 -0.020925 -7.256404 -1.635022 -2.991592 5.063796 0.000000 0.000000 0.000000 -1.377798 1.126002 -10.886635 0.785184 0.001532 -5.543106 11.607373 20.008320 7.260679 0.000000 0.000000 0.000000 5.193846 -0.078432 -0.703236 1.686551 -0.128161 3.585369 -11.413627 0.081972 3.539921 1.078952 -1.181867 -14.204262 0.000000 0.000000 0.000000 -22.878014 -16.332639 13.214450 -40.699462 -33.863795 5.062334 15.590625 -48.871304 -2.854400 0.000000 0.000000 0.000000 21.960091 -4.266079 -9.615231 52.478206 -6.806782 -6.745074 25.950698 47.188739 9.042691 0.000000 0.000000 0.000000 
-0.144620 0.928389 -0.040818 -0.779602 -36.980543 10.656672 2.500303 -0.192608 -4.480448 3.349907 -0.036991 -7.395810 -1.590333 -2.917901 4.905073 0.000000 0.000000 0.000000 -1.265488 1.135340 -10.976548 0.926984 0.006003 -5.528751 11.623984 20.022475 7.285441 0.000000 0.000000 0.000000 5.379413 -0.074078 -0.769160 1.596622 -0.068610 3.710944 -11.080366 0.079384 3.633404 1.281540 -1.304466 -14.459627 0.000000 0.000000 0.000000 -22.645920 -16.444974 13.226467 -40.865076 -33.923302 5.151858 16.364431 -49.712526 -3.224612 0.000000 0.000000 0.000000 21.693710 -4.029669 -9.402526 52.793309 -6.589986 -6.742454 27.123744 47.841669 9.646075 0.000000 0.000000 0.000000 
-0.144083 0.928027 -0.040771 -0.866285 -36.897694 10.859084 2.350482 -0.212038 -4.552468 3.728982 -0.045709 -7.618784 -1.598668 -2.939733 4.853012 0.000000 0.000000 0.000000 -1.329760 1.156443 -11.120053 1.116805 0.012713 -5.592449 11.571526 19.910921 7.282271 0.000000 0.000000 0.000000 5.423720 -0.078242 -0.753044 1.712213 -0.118955 3.730428 -10.936129 0.181334 3.596325 1.333770 -1.318571 -14.648307 0.000000 0.000000 0.000000 -22.503943 -16.543924 13.206248 -41.096221 -33.563825 5.091171 15.830354 -51.414197 -3.053971 0.000000 0.000000 0.000000 21.665573 -4.103370 -9.392008 52.840771 -6.370970 -6.663764 28.136331 48.122239 10.151659 0.000000 0.000000 0.000000 
-0.143446 0.927943 -0.040872 -0.873924 -36.695328 10.913718 2.295008 -0.228138 -4.731347 3.838562 -0.062875 -7.516361 -1.671448 -3.075577 4.780823 0.000000 0.000000 0.000000 -1.595456 1.196344 -11.373833 1.548068 0.017933 -5.252482 11.400288 19.679307 7.173643 0.000000 0.000000 0.000000 5.464884 -0.092659 -0.627125 1.728601 -0.104907 3.954308 -10.815086 0.333722 3.353468 1.291833 -1.249919 -14.807521 0.000000 0.000000 0.000000 -22.526231 -16.638316 13.139417 -41.128085 -33.604255 5.160840 14.935445 -52.800389 -2.725626 0.000000 0.000000 0.000000 21.638257 -3.716240 -9.073054 52.713853 -6.070953 -6.501172 28.417060 48.488511 10.439111 0.000000 0.000000 0.000000 
-0.142446 0.927807 -0.041352 -0.643570 -36.398558 10.848021 2.128674 -0.255500 -4.904430 3.781918 -0.051929 -7.565975 -1.815526 -3.336862 4.838799 0.000000 0.000000 0.000000 -1.860113 1.221067 -11.521925 1.591957 0.014420 -5.183074 11.174352 19.404909 6.990494 0.000000 0.000000 0.000000 5.321813 -0.120404 -0.355487 1.807127 -0.150162 3.966273 -10.874000 0.415274 3.274640 1.328621 -1.243400 -14.798878 0.000000 0.000000 0.000000 -22.508505 -16.963798 13.235127 -40.491996 -33.818937 5.131253 14.317724 -54.005203 -2.527988 0.000000 0.000000 0.000000 21.678095 -3.526773 -8.900567 52.626305 -6.172044 -6.532070 28.996469 48.877451 10.858615 0.000000 0.000000 0.000000 
-0.140925 0.927792 -0.042361 -0.363925 -35.843529 10.892544 1.929816 -0.292556 -5.130387 3.745608 -0.006025 -7.963030 -2.097907 -3.832075 5.145498 0.000000 0.000000 0.000000 -2.188143 1.288651 -11.992848 1.640512 0.002027 -4.831693 10.770378 18.893485 6.689361 0.000000 0.000000 0.000000 5.200285 -0.148191 -0.099296 2.084028 -0.279898 4.125992 -11.168729 0.383123 3.063723 1.109213 -1.066327 -14.825884 0.000000 0.000000 0.000000 -22.416242 -17.622026 13.473899 -39.568279 -35.027230 5.427279 13.957030 -53.983448 -2.451913 0.000000 0.000000 0.000000 21.934181 -3.128656 -8.677332 52.217085 -5.752363 -6.223912 28.925741 49.415679 11.053941 0.000000 0.000000 0.000000 
-0.138724 0.928083 -0.043864 -0.092849 -35.502423 10.838167 1.870126 -0.322871 -5.567925 3.382359 0.007440 -7.800302 -2.283618 -4.148242 5.329375 0.000000 0.000000 0.000000 -2.575561 1.342402 -12.355907 1.761162 -0.002336 -4.608659 10.581544 18.478394 6.675012 0.000000 0.000000 0.000000 5.136377 -0.171777 0.137890 2.079170 -0.277235 4.239004 -11.249274 0.266305 2.940344 0.823806 -0.874649 -14.993124 0.000000 0.000000 0.000000 -22.233725 -18.641266 13.998188 -38.101577 -36.449501 5.638530 15.131737 -53.064135 -3.103573 0.000000 0.000000 0.000000 21.920728 -2.457517 -8.285601 52.316245 -5.286340 -6.015518 28.195543 49.712604 10.838201 0.000000 0.000000 0.000000 
-0.136067 0.928150 -0.045635 0.155475 -35.162319 10.749230 1.790371 -0.350767 -5.966592 3.058949 0.021656 -7.662828 -2.465497 -4.457947 5.445166 0.000000 0.000000 0.000000 -2.714515 1.395689 -12.754752 1.440087 -0.018336 -4.265664 10.327310 18.183510 6.464449 0.000000 0.000000 0.000000 5.107013 -0.221600 0.695922 2.203614 -0.366916 4.028706 -11.471249 0.118199 3.091828 0.588437 -0.738280 -14.686651 0.000000 0.000000 0.000000 -22.458611 -19.741080 14.746010 -35.502676 -38.059772 5.518673 16.588638 -51.822155 -3.874335 0.000000 0.000000 0.000000 21.998132 -1.957925 -8.049057 51.985213 -4.600822 -5.642966 27.861042 49.835270 10.739784 0.000000 0.000000 0.000000 
-0.133421 0.928437 -0.047168 0.302772 -35.026056 10.817191 1.599508 -0.386923 -6.331413 3.041641 0.026607 -7.692388 -2.548324 -4.583797 5.674440 0.000000 0.000000 0.000000 -3.038686 1.464009 -13.234558 1.574543 -0.019174 -4.006903 10.268294 17.903310 6.583505 0.000000 0.000000 0.000000 5.225625 -0.243520 0.888967 2.174840 -0.327808 4.292113 -11.636372 -0.203815 2.664702 0.216685 -0.508967 -14.694502 0.000000 0.000000 0.000000 -22.448172 -20.796445 15.411807 -33.673999 -39.364990 5.501195 17.975676 -49.902154 -4.479462 0.000000 0.000000 0.000000 22.103666 -1.144135 -7.692126 51.531764 -3.881769 -5.175124 26.960305 49.851811 10.332878 0.000000 0.000000 0.000000 
-0.131398 0.928698 -0.048149 0.446771 -35.038385 10.839710 1.505177 -0.408376 -6.616510 2.848026 0.036797 -7.629490 -2.567263 -4.601289 5.833833 0.000000 0.000000 0.000000 -3.248516 1.506738 -13.531060 1.542455 -0.020822 -3.919067 10.295830 17.798361 6.720251 0.000000 0.000000 0.000000 5.303497 -0.273146 1.197877 2.156164 -0.319813 4.256159 -11.777500 -0.576199 2.442280 0.070746 -0.442793 -14.142101 0.000000 0.000000 0.000000 -23.063201 -21.380675 16.080962 -31.562344 -39.774581 5.003398 18.892227 -48.496614 -4.844220 0.000000 0.000000 0.000000 22.150545 -0.507886 -7.471495 51.133828 -3.786746 -5.002981 26.781201 49.514982 10.122915 0.000000 0.000000 0.000000 
-0.130298 0.928691 -0.048551 0.445629 -35.189351 10.836635 1.535519 -0.403857 -6.632457 2.688460 0.052610 -7.669229 -2.512021 -4.502735 5.854478 0.000000 0.000000 0.000000 -3.181512 1.517869 -13.609583 1.329226 -0.022903 -3.919487 10.380682 17.922989 6.779068 0.000000 0.000000 0.000000 5.384256 -0.276032 1.216735 2.224921 -0.315329 4.548227 -11.855889 -0.755993 2.211407 -0.004848 -0.402994 -14.052530 0.000000 0.000000 0.000000 -23.266691 -20.961828 15.921294 -30.843065 -39.746510 4.787089 19.350799 -47.489643 -4.950510 0.000000 0.000000 0.000000 22.182512 -0.324364 -7.427704 50.569320 -3.745838 -4.860395 26.689294 49.046201 9.964249 0.000000 0.000000 0.000000 
-0.129947 0.928613 -0.048686 0.350778 -35.596532 10.816814 1.653290 -0.371119 -6.219881 2.527013 0.109851 -8.185692 -2.364510 -4.236691 5.991720 0.000000 0.000000 0.000000 -3.149633 1.506260 -13.501266 1.401879 -0.015010 -4.114085 10.650120 18.215564 7.024212 0.000000 0.000000 0.000000 5.528204 -0.285530 1.308117 2.214543 -0.282376 4.661261 -12.141681 -0.575552 1.969973 0.174687 -0.504056 -13.860441 0.000000 0.000000 0.000000 -23.301029 -20.591491 15.659084 -30.421031 -38.707854 4.385869 20.539513 -46.801951 -5.381221 0.000000 0.000000 0.000000 22.664150 -0.200453 -7.507234 49.982804 -4.447856 -4.994969 26.335098 48.479986 9.733021 0.000000 0.000000 0.000000 
-0.129901 0.928382 -0.048860 0.272654 -35.819749 10.717402 1.862708 -0.335644 -5.939955 2.237429 0.147520 -8.357228 -2.284865 -4.099460 5.944615 0.000000 0.000000 0.000000 -2.948836 1.495198 -13.431383 1.188424 -0.017142 -4.022879 10.721431 18.492164 6.946620 0.000000 0.000000 0.000000 5.517776 -0.293410 1.437196 2.208763 -0.262636 4.750696 -12.152875 -0.543979 2.122722 0.508824 -0.721468 -13.884220 0.000000 0.000000 0.000000 -23.392064 -19.711621 15.171217 -30.534553 -37.962607 4.167349 22.466575 -46.337036 -6.067414 0.000000 0.000000 0.000000 22.651801 -0.325887 -7.601782 50.044369 -5.409850 -5.411846 25.733197 47.520229 9.257094 0.000000 0.000000 0.000000 
